<?xml version="1.0" standalone="no"?>
<!DOCTYPE svg PUBLIC "-//W3C//DTD SVG 20010904//EN"
 "http://www.w3.org/TR/2001/REC-SVG-20010904/DTD/svg10.dtd">
<svg version="1.0" xmlns="http://www.w3.org/2000/svg"
 width="16.000000pt" height="16.000000pt" viewBox="0 0 16.000000 16.000000"
 preserveAspectRatio="xMidYMid meet">
<metadata>
Created by potrace 1.11, written by Peter Selinger 2001-2013
</metadata>
<g transform="translate(0.000000,16.000000) scale(0.003125,-0.003125)"
fill="#000000" stroke="none">
<path d="M2465 4800 l-440 -5 -78 -27 c-219 -78 -355 -238 -404 -478 -3 -14
-7 -74 -8 -135 -2 -60 -3 -113 -4 -116 0 -3 -227 -5 -503 -5 -277 1 -528 -3
-558 -7 -159 -22 -296 -111 -364 -236 -59 -109 -59 -116 -61 -831 -2 -667 0
-693 35 -715 31 -19 472 -159 540 -171 14 -3 39 -9 56 -15 17 -5 40 -11 50
-13 10 -3 60 -13 109 -25 146 -32 257 -54 395 -76 19 -3 60 -10 90 -15 48 -8
94 -15 175 -25 11 -1 47 -5 80 -9 33 -4 80 -9 105 -12 25 -3 72 -7 105 -10 33
-2 78 -6 100 -9 128 -13 265 -16 283 -6 28 15 40 54 45 149 12 205 143 313
368 306 94 -3 142 -15 200 -52 97 -62 136 -142 140 -287 2 -71 20 -112 54
-121 26 -6 222 4 390 21 28 3 75 7 105 10 51 6 253 31 310 40 14 2 45 7 70 10
25 4 63 10 85 15 22 5 60 11 85 15 25 4 65 11 90 17 25 5 59 12 75 14 17 3
104 23 194 45 90 22 170 38 178 35 8 -3 12 -2 9 3 -3 4 32 18 77 30 158 44
401 130 421 151 21 20 21 27 21 678 0 361 -3 680 -7 707 -16 107 -102 237
-204 308 -38 26 -130 63 -184 74 -14 3 -265 6 -557 6 l-533 0 0 56 c-1 94 -9
199 -20 244 -54 244 -281 440 -534 462 -108 10 -133 10 -581 5z m615 -174
c174 -30 322 -192 345 -376 5 -41 9 -181 6 -205 -1 -7 -87 -11 -261 -11 -170
-1 -257 3 -253 9 4 6 1 7 -8 1 -20 -13 -800 -13 -792 -1 4 6 1 7 -8 1 -8 -5
-103 -10 -211 -10 l-198 -1 -1 51 c-3 200 24 300 113 407 49 59 174 124 267
138 62 9 946 6 1001 -3z"/>
<path d="M83 1965 c-11 -8 -25 -27 -30 -42 -15 -46 -9 -1179 6 -1233 8 -25 14
-49 16 -55 10 -45 78 -151 124 -194 69 -64 149 -104 238 -118 26 -4 989 -7
2138 -8 2001 0 2093 1 2163 19 122 31 241 125 291 231 57 122 55 90 57 741 1
440 -1 608 -10 625 -6 13 -23 30 -38 38 -24 14 -36 12 -175 -31 -128 -40 -177
-54 -253 -74 -8 -2 -64 -17 -125 -33 -112 -30 -352 -80 -514 -107 -18 -3 -43
-8 -55 -10 -11 -2 -41 -6 -66 -9 -25 -3 -56 -8 -70 -10 -30 -6 -76 -13 -150
-20 -30 -4 -66 -8 -80 -10 -14 -2 -56 -7 -95 -10 -38 -4 -83 -9 -100 -11 -16
-2 -70 -6 -120 -9 -49 -4 -112 -8 -140 -10 -27 -2 -64 -4 -82 -4 -50 -1 -85
-38 -90 -97 -11 -107 -58 -197 -131 -247 -108 -75 -351 -75 -450 0 -74 56
-121 134 -129 217 -6 67 -20 101 -46 114 -12 6 -71 14 -132 18 -232 14 -512
41 -615 59 -14 3 -47 7 -75 10 -68 7 -385 63 -465 81 -36 9 -148 36 -250 61
-173 42 -226 57 -420 119 -87 28 -99 29 -127 9z"/>
</g>
</svg>
